PathFileType	4	(X/Y/Z)	C:\Users\Basilio\Documents\Thesis Gigler\squatting_fais\c3dfiles\039\SLS_pre_back5\markers_experimental.trc
DataRate	CameraRate	NumFrames	NumMarkers	Units	OrigDataRate	OrigDataStartFrame	OrigNumFrames
200.000000	200.000000	4	65	mm	200.000000	967	1934
Frame#	Time	FHD			LBHD			RBHD			C7			T10			CLAV			LSHO			LUUPA			LMUPA			LDUPA			LLEP			LMEP			LRAD			LUL			LRFIN			RSHO			RUPA1			RMUPA			RDUPA			RLEP			RMEP			RRAD			RUL			RUFIN			LASI			RASI			USACR			LSACR			RSACR			LTHI1			LTHI2			LTHI3			LTHI4			LLFC			LMFC			LTIB1			LTIB2			LTIB3			LTIB4			LLMAL			LMMAL			LHEE			LMT1			LMT2			LMT5			RTHI			RTHI2			RTHI3			RTHI4			RLFC			RMFC			RTIB1			RTIB2			RTIB3			RTIB4			RLMAL			RMMAL			RHEE			RMT1			RMT2			RMT5			*61			*62			*63			*64			
		X1	Y1	Z1	X2	Y2	Z2	X3	Y3	Z3	X4	Y4	Z4	X5	Y5	Z5	X6	Y6	Z6	X7	Y7	Z7	X8	Y8	Z8	X9	Y9	Z9	X10	Y10	Z10	X11	Y11	Z11	X12	Y12	Z12	X13	Y13	Z13	X14	Y14	Z14	X15	Y15	Z15	X16	Y16	Z16	X17	Y17	Z17	X18	Y18	Z18	X19	Y19	Z19	X20	Y20	Z20	X21	Y21	Z21	X22	Y22	Z22	X23	Y23	Z23	X24	Y24	Z24	X25	Y25	Z25	X26	Y26	Z26	X27	Y27	Z27	X28	Y28	Z28	X29	Y29	Z29	X30	Y30	Z30	X31	Y31	Z31	X32	Y32	Z32	X33	Y33	Z33	X34	Y34	Z34	X35	Y35	Z35	X36	Y36	Z36	X37	Y37	Z37	X38	Y38	Z38	X39	Y39	Z39	X40	Y40	Z40	X41	Y41	Z41	X42	Y42	Z42	X43	Y43	Z43	X44	Y44	Z44	X45	Y45	Z45	X46	Y46	Z46	X47	Y47	Z47	X48	Y48	Z48	X49	Y49	Z49	X50	Y50	Z50	X51	Y51	Z51	X52	Y52	Z52	X53	Y53	Z53	X54	Y54	Z54	X55	Y55	Z55	X56	Y56	Z56	X57	Y57	Z57	X58	Y58	Z58	X59	Y59	Z59	X60	Y60	Z60	X61	Y61	Z61	X62	Y62	Z62	X63	Y63	Z63	X64	Y64	Z64	X65	Y65	Z65	

968	4.835	-152.2855529785157	1577.54296875	-659.7600708007814	-314.5574340820313	1568.530029296875	-778.506042480469	-284.4032287597657	1567.331420898438	-639.7515869140626	-373.5321960449219	1414.118530273438	-718.4643554687501	-457.2404174804689	1125.172241210938	-767.3933105468751	nan	nan	nan	-305.4483947753907	1434.006469726563	-868.4143066406252	-143.9498443603516	1402.517333984375	-983.8049926757815	-120.0633773803711	1431.93994140625	-951.2233886718752	-74.64926910400392	1411.316284179688	-983.5100708007815	-7.498055458068849	1418.461669921875	-978.189636230469	-3.936986446380616	1345.848388671875	-949.5321044921877	268.5529174804688	1443.81103515625	-880.1247558593752	270.5001525878907	1453.337646484375	-955.806579589844	345.5864562988282	1487.506713867188	-871.1021118164065	-258.0846862792969	1405.513916015625	-572.5307617187501	-98.34642028808597	1337.09326171875	-478.006561279297	-72.22600555419923	1373.219604492188	-501.8855590820314	-29.16711616516114	1335.685424804688	-480.9305725097657	33.34919738769532	1352.090087890625	-492.1216735839845	38.89266586303712	1287.431030273438	-535.5672607421876	316.6380920410157	1410.415771484375	-579.2114868164064	320.8597106933594	1395.230712890625	-504.774627685547	396.7453918457032	1455.298706054688	-571.8187255859376	-348.9155578613282	911.7329101562502	-896.049011230469	-337.9842224121094	909.4322509765627	-674.1470947265626	-511.2313537597657	1001.05126953125	-775.2642211914065	-523.1259765625001	969.825378417969	-801.7737426757815	-519.8731079101564	971.2789306640627	-742.2451171875001	-367.3388061523438	656.0785522460939	-996.8790283203127	-313.6827697753907	591.5842895507814	-1014.559387207031	-267.3005371093751	602.7015991210939	-1007.822937011719	-324.6640014648438	530.5535278320314	-1003.406799316406	-298.0350341796876	450.1648254394532	-1001.813171386719	-266.2918701171876	406.563201904297	-896.7360839843752	-380.9366760253907	343.2542419433594	-966.5216064453127	-442.247283935547	405.5239257812501	-989.5183105468752	-435.1058654785157	362.5872802734376	-980.1397094726565	-501.8549194335939	345.3309020996094	-925.0300903320315	-689.1468505859376	371.1206054687501	-914.0396118164065	-653.0744018554689	355.0148010253907	-836.5476074218752	-696.9041748046876	443.9851379394532	-874.1817016601565	-737.8394775390626	228.5089416503907	-791.419860839844	-765.0180053710939	229.7541503906251	-825.802917480469	-807.6785278320315	275.2604064941407	-858.7521972656252	-280.1748657226563	683.2331542968751	-610.3748168945314	-216.6458892822266	660.7893066406251	-613.6072387695314	-191.6621856689453	681.8518066406251	-620.5044555664064	-194.6761322021485	579.6210937500001	-625.3510742187501	-165.0007019042969	467.1541442871095	-664.1375122070314	-141.1910705566407	478.341278076172	-775.4438476562502	-199.9490356445313	277.0182800292969	-717.2542114257814	-302.2154235839844	245.6834564208985	-707.5906982421876	-262.8205261230469	222.6607360839844	-717.1190795898439	-266.2361450195313	176.9417724609375	-755.9685058593751	-361.7771606445313	113.1586303710938	-741.7481079101564	-332.6957397460938	133.6107940673828	-825.9750976562502	-438.1635131835939	97.00232696533206	-794.1951293945315	-212.4598083496094	53.68439865112306	-806.6253662109377	-216.6716766357422	56.20460128784181	-760.5525512695314	-272.4880981445313	36.62731170654298	-709.9649047851564	nan	nan	nan	nan	nan	nan	nan	nan	nan	nan	nan	nan	
969	4.84	-151.8694152832032	1576.912841796875	-659.7893066406251	-314.3473815917969	1567.976196289063	-778.5438232421877	-284.2236022949219	1567.275634765625	-639.8498535156251	-373.1687011718751	1413.479736328125	-718.3804931640626	-456.9556579589845	1124.705444335938	-767.5166015625001	nan	nan	nan	-305.1170349121094	1433.286743164063	-868.290710449219	-143.7325897216797	1401.734985351563	-983.7889404296877	-119.8260726928711	1431.248779296875	-951.2529907226565	-74.33989715576173	1410.630615234375	-983.4803466796877	-7.130710601806642	1417.94970703125	-978.173278808594	-3.597886562347413	1345.212890625	-949.6162109375002	268.8368225097657	1443.24853515625	-880.1672973632815	270.9040527343751	1452.671875	-955.8785400390627	345.8456115722657	1486.869384765625	-871.1347656250002	-257.6232299804688	1404.820068359375	-572.3740234375001	-97.6980895996094	1336.32470703125	-477.9220581054689	-71.92658996582033	1372.696044921875	-501.8027343750001	-28.66176795959473	1334.964477539063	-480.9377441406251	33.76757049560548	1351.295776367188	-492.2366027832032	39.37267684936524	1287.099975585938	-535.0871582031251	316.9642333984376	1409.940551757813	-579.2053833007814	321.2524414062501	1394.713989257813	-504.7330322265626	397.1619262695314	1454.896728515625	-571.8767089843751	-349.0883483886719	911.1196899414065	-896.0131835937502	-338.0012512207032	908.9844970703127	-673.9392089843751	-511.219940185547	1000.799621582031	-775.2637939453127	-523.1030273437501	969.3646240234377	-801.851745605469	-519.8333129882814	970.794616699219	-742.2606201171876	-367.4828186035157	655.5053710937501	-996.8944091796877	-313.6366882324219	591.0554199218751	-1014.51806640625	-267.3074035644532	602.0920410156251	-1007.706909179688	-324.6304016113282	529.9575805664064	-1003.527893066406	-297.9155273437501	449.6744995117189	-1001.873840332031	-266.1984558105469	406.0013427734376	-896.8190917968752	-380.7474975585938	342.6353759765626	-966.5825805664065	-442.0814514160157	404.9612731933595	-989.6025390625002	-435.0889587402345	362.0978698730469	-980.2305297851565	-501.8062744140626	344.8404235839844	-925.266296386719	-688.9911499023439	370.4756164550782	-914.2427978515627	-653.0609741210939	354.4366455078126	-836.9409179687502	-696.7681274414064	443.4842224121095	-874.381774902344	-738.0213623046876	228.093734741211	-791.7943115234377	-765.1165161132814	229.2618408203126	-826.028503417969	-807.7062988281252	274.9251708984376	-859.0572509765627	-280.1878662109376	683.0112304687501	-610.1665039062501	-216.5662689208985	660.7864990234376	-613.3405761718751	-191.601806640625	681.6890869140626	-620.3768310546876	-194.6871795654297	579.4519653320314	-625.1471557617189	-164.9380035400391	467.0088500976564	-663.9277954101564	-141.0765228271485	478.1903076171876	-775.1977539062502	-199.9051818847657	276.9848632812501	-717.1840209960939	-302.2036132812501	245.6471405029297	-707.4844360351564	-262.9188537597657	222.6794738769532	-716.8566284179689	-266.2566833496094	176.8894653320313	-755.8115844726564	-361.8282775878907	113.1236724853516	-741.7910766601564	-332.6557006835938	133.625732421875	-825.893005371094	-438.1074829101564	96.967643737793	-794.2015380859377	-212.5379486083985	53.79291152954103	-806.6295166015627	-216.6802062988282	56.20504760742189	-760.5590209960939	-272.4991149902344	36.60604476928712	-709.9398803710939	nan	nan	nan	nan	nan	nan	nan	nan	nan	nan	nan	nan	
970	4.845	-151.5729522705078	1576.266357421875	-659.7716674804689	-314.3213500976563	1567.286743164063	-778.2725830078127	-283.9557495117188	1566.239868164063	-639.3579711914064	-372.9132995605469	1412.9658203125	-718.2689819335939	-457.0855102539064	1124.157958984375	-767.5816650390626	nan	nan	nan	-304.7125854492188	1432.66552734375	-868.365417480469	-143.3742065429688	1401.20458984375	-983.6857910156252	-119.4948654174805	1430.581176757813	-951.2823486328127	-73.98206329345705	1409.740356445313	-983.4447021484377	-6.785970211029055	1417.158447265625	-978.2793579101565	-3.290480136871339	1344.466430664063	-949.585632324219	269.1042175292969	1442.574340820313	-880.2197265625002	271.2380065917969	1451.941772460938	-955.9268798828127	346.2063293457032	1486.062377929688	-871.027038574219	-257.2265014648438	1404.146240234375	-572.2946166992189	-97.08411407470706	1336.021118164063	-477.6069946289064	-71.53491210937501	1371.997802734375	-501.6782531738282	-28.29896926879884	1334.54833984375	-480.7882385253907	34.05467224121094	1350.876220703125	-492.1521911621095	39.75230407714844	1286.430053710938	-535.1241455078126	317.2822875976563	1409.5185546875	-579.3018188476564	321.4093933105469	1394.003051757813	-505.0713500976564	397.5215759277345	1454.528564453125	-571.9066772460939	-349.1296386718751	910.468444824219	-895.967468261719	-338.0968322753907	908.6413574218752	-673.7959594726564	-511.4071655273439	1000.132080078125	-775.3491821289065	-523.0531616210939	968.9575805664065	-801.921325683594	-519.8963623046876	970.464050292969	-742.4235839843751	-367.4461669921876	654.9846191406251	-996.789978027344	-313.6504516601563	590.5719604492189	-1014.486389160156	-267.3074340820313	601.6464233398439	-1007.680297851563	-324.6005859375001	529.3212890625001	-1003.600524902344	-297.9084777832032	449.185516357422	-1001.923583984375	-266.0958862304688	405.3545532226564	-896.896667480469	-380.7580871582032	342.1733703613282	-966.6815185546877	-442.0704345703126	404.5194396972657	-989.7434082031252	-434.9625549316407	361.5742797851563	-980.3385009765627	-501.6990661621095	344.2947692871094	-925.4077148437502	-688.9310302734376	370.0467529296876	-914.3635253906252	-653.0189208984376	353.9278259277344	-836.9231567382815	-696.6705322265626	443.052947998047	-874.575866699219	-738.0828857421876	227.8392333984376	-791.865661621094	-765.2124633789064	228.8732299804688	-826.2637939453127	-807.5875244140627	274.4114074707032	-859.2400512695315	-280.1004028320313	682.7971191406251	-609.9276733398439	-216.5422821044922	660.6824951171876	-613.2109985351564	-191.5489501953125	681.5193481445314	-620.1724853515626	-194.6146697998047	579.1909790039064	-624.9918212890626	-164.848373413086	466.9242248535157	-663.7365112304689	-140.8337554931641	478.0956115722657	-775.0332641601565	-199.8088531494141	276.9309692382813	-717.0142211914064	-302.0894775390626	245.5707397460938	-707.3800659179689	-262.9901123046876	222.7315216064454	-716.5202026367189	-266.2904663085938	176.3543395996094	-756.1229858398439	-361.8449401855469	113.1382217407227	-741.7961425781251	-332.6217346191407	133.6445922851563	-825.8544921875002	-438.084930419922	96.99882507324222	-794.1872558593752	-212.5141906738282	53.76315307617189	-806.6340942382815	-216.7004394531251	56.16213607788087	-760.5545043945314	-272.4958496093751	36.56587219238282	-709.9326171875001	nan	nan	nan	nan	nan	nan	nan	nan	nan	nan	nan	nan	
971	4.850000000000001	-151.265869140625	1575.6884765625	-659.7813720703126	-313.6101379394532	1566.590698242188	-778.3140869140627	-283.5578613281251	1565.711059570313	-639.3515625000001	-372.6104431152344	1412.421020507813	-718.2635498046876	-456.5922241210939	1123.758056640625	-767.6047973632814	nan	nan	nan	-304.3925476074219	1432.047973632813	-868.335144042969	-143.0342102050782	1400.475830078125	-983.7134399414065	-119.1891021728516	1430.01611328125	-951.2100830078127	-73.62725067138673	1409.219360351563	-983.4681396484377	-6.396752357482912	1416.352905273438	-978.3674316406252	-2.975446462631226	1343.811157226563	-949.552673339844	269.5858154296876	1441.79931640625	-880.2510986328127	271.5156250000001	1451.267944335938	-955.9431762695315	346.6117553710938	1485.401977539063	-871.1121826171877	-256.8584289550782	1403.554931640625	-572.3344726562501	-97.09812164306643	1335.214965820313	-477.9674377441407	-71.17917633056642	1371.310546875	-501.7173767089845	-27.84834671020509	1334.053344726563	-480.796844482422	34.45670700073243	1350.44970703125	-492.0399475097657	40.24354553222657	1285.860229492188	-535.0474243164064	317.7743225097657	1409.067504882813	-579.3150634765626	322.0691223144532	1393.850219726563	-504.6797485351564	398.3059692382814	1454.472412109375	-572.0439453125001	-349.2251892089844	909.593200683594	-895.870300292969	-338.1992492675782	908.3603515625002	-673.8254394531251	-511.3670959472657	999.9858398437502	-775.4475708007815	-522.9730224609376	968.4912719726565	-801.903747558594	-519.7044067382814	969.976989746094	-742.4673461914064	-367.4655761718751	654.4810791015626	-996.7913208007815	-313.5487365722657	589.8756713867189	-1014.422119140625	-267.1998901367188	601.1015014648439	-1007.671447753906	-324.5770568847657	528.7729492187501	-1003.651184082031	-297.9999084472657	448.7920227050782	-1001.911254882813	-266.1573486328126	404.8965454101564	-896.986999511719	-380.7833557128907	341.6721801757813	-966.7351074218752	-442.0786132812501	404.0898437500001	-989.8475341796877	-434.9241943359376	361.1148376464844	-980.4990234375002	-501.617889404297	343.7734069824219	-925.546325683594	-688.8121337890626	369.5715026855469	-914.5596923828127	-653.1130371093751	353.4219055175782	-836.856872558594	-696.5603637695314	442.650848388672	-874.749938964844	-738.2247314453126	227.3584136962891	-792.183044433594	-765.2608032226564	228.552963256836	-826.4603271484377	-807.7473144531252	274.0395507812501	-859.6844482421877	-280.1878051757813	682.4768066406251	-609.8914794921876	-217.2416992187501	659.6564941406251	-614.2727661132814	-191.5581817626953	681.4083862304689	-620.0556640625001	-194.6100463867188	578.9622802734376	-624.8668212890626	-164.7360382080078	466.8128967285157	-663.5678100585939	-140.773422241211	478.0311279296876	-774.758239746094	-199.7504425048829	276.8504333496094	-716.8774414062501	-302.0746459960938	245.5716247558594	-707.3269653320314	-262.9973144531251	222.6780395507813	-716.3858642578126	-266.3115234375001	176.3636322021485	-755.9798583984376	-361.7956542968751	113.1440658569336	-741.7514038085939	-332.6784973144532	133.7239837646485	-825.8365478515627	-438.0824584960939	97.01847839355472	-794.1483154296877	-212.5067749023438	53.80267333984376	-806.5650634765627	-216.7316894531251	56.24121856689455	-760.4901123046876	-272.5302734375001	36.53446960449219	-709.8986816406251	nan	nan	nan	nan	nan	nan	nan	nan	nan	nan	nan	nan	
